@startuml State Example

state join1 <<join>>
state end1  <<end>>
state "Req(Id)" as ReqId <<sdlreceive>>
state c <<choice>>

state Somp {
  state entry1 <<entryPoint>>
  state entry2 <<expansionInput>>
  state sin
  entry1 --> sin
  entry2 -> sin
  sin -> sin2
  sin2 --> join1
  sin2 --> exitA <<exitPoint>>
}

[*] --> entry1
exitA --> Foo
Foo : Example Text
Foo1 -> entry2
Foo1 --> ReqId
ReqId --> join1
join1 --> end1
Foo --> c
c --> end1
@enduml